<?xml version="1.0" encoding="UTF-8"?>
<svg fill="#23272f" width="700pt" height="700pt" version="1.1" viewBox="0 0 700 700" xmlns="http://www.w3.org/2000/svg">
 <path d="m577.5 525c-4.6406 0.003906-9.0938-1.8398-12.371-5.1289l-144.43-144.43c-36.211 30.113-82.215 45.879-129.29 44.301-47.066-1.5742-91.918-20.379-126.03-52.844-34.117-32.465-55.125-76.328-59.027-123.26-3.9062-46.93 9.5586-93.664 37.836-131.32 28.281-37.656 69.406-63.617 115.57-72.953 46.16-9.332 94.141-1.3906 134.83 22.32 40.691 23.711 71.254 61.539 85.891 106.3 14.637 44.766 12.324 93.344-6.4961 136.51-2.5039 5.7305-7.875 9.6875-14.09 10.387-6.2148 0.69531-12.328-1.9727-16.039-7.0078-3.7109-5.0312-4.4531-11.664-1.9492-17.395 21.156-48.402 16.664-104.19-11.969-148.59-28.633-44.395-77.602-71.496-130.42-72.188-52.824-0.6875-102.48 25.125-132.27 68.758-29.781 43.629-35.734 99.281-15.848 148.22 19.887 48.941 62.965 84.668 114.74 95.16 51.773 10.492 105.36-5.6445 142.73-42.984 3.2812-3.2812 7.7305-5.1289 12.371-5.1289 4.6445 0 9.0938 1.8477 12.375 5.1289l156.25 156.26c3.2812 3.2812 5.125 7.7305 5.125 12.371s-1.8438 9.0898-5.125 12.375c-3.2812 3.2812-7.7305 5.125-12.371 5.125zm-364.2-232.49c4.0352-2.3398 7.0078-6.1562 8.293-10.641 1.2812-4.4844 0.78125-9.293-1.4062-13.418-2.8945-5.5391-8.5273-9.1133-14.777-9.375-6.2461-0.26172-12.156 2.8281-15.508 8.1094-3.3477 5.2812-3.6289 11.945-0.73047 17.484l0.83594 1.5391c1.4336 2.6094 3.5469 4.7852 6.1133 6.2891 2.5664 1.5078 5.4961 2.2891 8.4727 2.2656 3.0469-0.015625 6.0391-0.78906 8.707-2.2539zm-3.2969-65.008c0.027344-23.199 9.2539-45.438 25.66-61.84 16.402-16.406 38.641-25.633 61.84-25.66 6.2539 0 12.031-3.3359 15.156-8.75s3.125-12.086 0-17.5-8.9023-8.75-15.156-8.75c-32.477 0.035156-63.617 12.953-86.582 35.918-22.965 22.965-35.883 54.105-35.918 86.582 0 6.2539 3.3359 12.031 8.75 15.156s12.086 3.125 17.5 0 8.75-8.9023 8.75-15.156z"/>
</svg>
